<svg xmlns="http://www.w3.org/2000/svg" xmlns:xlink="http://www.w3.org/1999/xlink" width="111.086" height="154.536" viewBox="0 0 111.086 154.536"><defs><clipPath id="a"><rect width="111.086" height="154.536" fill="none"/></clipPath></defs><path d="M83.234,84.405l.676,10.136,25.8-.472V55.058H3.341L1.968,94.541l25.852-.472V84.994l12.76-.135v53.535l-12.76-.137v-9.127l-25.852-.475,1.373,39.712H109.715V129.129l-25.8-.475-.676,10.195-12.269-.131V84.536Z" transform="translate(-0.576 -16.123)" fill="#f49a0a"/><path d="M83.234,168.073l-12.269-.132-.105-10.7-15.447-2.382L40.452,157.12l.129,10.5-12.76-.136v-9.127l-25.852-.475L3.341,197.59H109.715V158.353l-25.8-.475Z" transform="translate(-0.576 -45.347)" fill="#fff"/><g clip-path="url(#a)"><path d="M82.015,155.349a9.593,9.593,0,0,1-2.259-.253c-1.112-.23-2.206-.472-3.306-.709a8.847,8.847,0,0,0-3.654-.02q-.988.2-1.963.411c-.874.189-1.714.408-2.665.527-1.442.181-2.225-.039-2.216-.653-.03-.2.165-.409.471-.613a9.276,9.276,0,0,1,2.75-.96,13.607,13.607,0,0,0,4.75-2.088c.155-.106.139-.272.633-.269a.792.792,0,0,1,.676.263,11.435,11.435,0,0,0,4.614,2.033,11.97,11.97,0,0,1,2.215.7c.752.323,1.215.694,1.134,1.156-.054.3-.431.459-1.181.478" transform="translate(-19.312 -44.136)" fill="#030404"/><path d="M59.448,128.953s9.851,6.972,12.426,12.78a4.331,4.331,0,0,1-3.942,5.47s-7.7.846-8.941-3.464.457-14.786.457-14.786" transform="translate(-17.141 -37.762)" fill="#fff"/><path d="M59.792,130.979a5.326,5.326,0,0,0,.438,3.517c1.187,2.633,2.543,5.03,3.824,7.531.158.308.436.6.321,1.04-.14.537-.46.17-.685.038a50.867,50.867,0,0,1-6.8-4.776c-1.375-1.134-2.1-4.115-2.112-6.567Z" transform="translate(-16.042 -38.355)" fill="#050605"/><path d="M90.875,128.6s-10.479,6.972-13.218,12.78c-.924,5.132,4.193,5.47,4.193,5.47s8.188.846,9.511-3.464-.486-14.786-.486-14.786" transform="translate(-22.708 -37.66)" fill="#fff"/><path d="M120.9,55.641v7.867l-4.066,1.385L113.92,65.96l-4.155-1.067H105.7l-3.554,1.8-1.57,2.069-.884,3.558L97.93,75.972,96.2,74.114s8.443-15.759-6.1-16.926c-2.607,0,30.806-1.547,30.806-1.547" transform="translate(-26.341 -16.294)" fill="#fff"/><path d="M22.628,55.866v7.867l4.066,1.385,2.917,1.067,4.155-1.067h4.069l3.554,1.8,1.57,2.07.884,3.558L45.6,76.2l1.733-1.858s-8.442-15.759,6.1-16.926c2.607,0-30.806-1.547-30.806-1.547" transform="translate(-6.626 -16.359)" fill="#fff"/><path d="M38.72,69.8v4.82l3.418,1.532h4.551l1.224-1.885-1.224-2.24L45.32,70.609l-2.23-1.263-2.778-.623Z" transform="translate(-11.339 -20.124)" fill="#fff"/><path d="M114.909,69.8v4.82l-3.418,1.532H106.94l-1.224-1.885,1.224-2.24,1.369-1.414,2.23-1.263,2.778-.623Z" transform="translate(-30.957 -20.124)" fill="#fff"/><path d="M105.428,56.152V89.558H84.889V81.313H67.219v3.614h-.028V134.89h.028v4.319h17.67v-8.95h20.538v33.407H5.656V130.259H26.088v8.95h17.67v-57.9H26.088v8.246H5.656V56.152h99.771Zm5.657-5.657H0V95.216H31.746V86.97H38.1v46.582H31.746V124.6H0v44.721H111.085V124.6H79.232v8.95H72.877v-4.319h-.028V90.584l.018-3.614h6.365v8.246h31.853V50.495Z" transform="translate(0 -14.787)" fill="#030404"/><path d="M82.249,120.7a4.855,4.855,0,0,0-2.691.81c-1.322.731-2.625,1.506-3.935,2.264a4.193,4.193,0,0,1-4.353.062q-1.177-.64-2.338-1.315a18.239,18.239,0,0,0-3.176-1.683c-1.717-.579-2.648.127-2.638,2.09a3.7,3.7,0,0,0,.56,1.957,9.066,9.066,0,0,0,3.276,3.07,17.387,17.387,0,0,1,5.657,6.669c.185.342.165.868.756.86.562-.008.618-.477.805-.84,1.359-2.648,2.951-5.037,5.494-6.5a10.378,10.378,0,0,0,2.64-2.225,4.962,4.962,0,0,0,1.35-3.695c-.064-.969-.511-1.465-1.407-1.527" transform="translate(-18.482 -35.328)" fill="#fff"/><path d="M82.126,123.037a4.961,4.961,0,0,0-2.619.739c-1.286.666-2.554,1.373-3.83,2.064a4.317,4.317,0,0,1-4.234.057q-1.147-.583-2.276-1.2a18.157,18.157,0,0,0-3.089-1.534c-1.672-.528-2.578.115-2.567,1.905a3.208,3.208,0,0,0,.545,1.783,8.62,8.62,0,0,0,3.186,2.8,16.183,16.183,0,0,1,5.5,6.078c.18.312.161.791.735.784.547-.007.6-.434.783-.766a13.725,13.725,0,0,1,5.346-5.923A9.914,9.914,0,0,0,82.18,127.8a4.359,4.359,0,0,0,1.315-3.367,1.316,1.316,0,0,0-1.368-1.392" transform="translate(-18.597 -36.014)" fill="#030404"/><path d="M98.051,58.463a10.444,10.444,0,0,0-3.335-5.05l.255-.24a15.175,15.175,0,0,0,5.428.977c2.025,0,2.158,0,2.4-1.847H93.51a1.506,1.506,0,0,1,.29.486,5.56,5.56,0,0,0-.93-.206c-.581-.015-1.271.035-1.565.535-.351.6.029,1.194.476,1.7,1.567,1.764,2.95,3.7,4.634,5.35.368.36.741,1.092,1.234.847.557-.277.576-1.076.533-1.731a4.193,4.193,0,0,0-.132-.817" transform="translate(-26.697 -15.316)" fill="#050605"/><path d="M60.673,52.689a3.079,3.079,0,0,0-2.01.2l-.23-.182c.2-.141.4-.277.6-.415h-9.2c.023,1.547.364,1.812,1.88,1.851a17.641,17.641,0,0,0,5.473-.757l.326.336a20.089,20.089,0,0,0-1.694,2.107c-.84,1.373-1.725,2.766-1.189,4.555.215.718.426.943,1.054.332a83.232,83.232,0,0,0,5.5-6.33c.613-.733.35-1.349-.515-1.693" transform="translate(-14.595 -15.312)" fill="#050605"/><rect width="2.666" height="13.742" transform="translate(8.62 132.263)" fill="#1a1818"/><path d="M22.647,192.125l-1.81-5.092H18.623v13.742h2.666v-5.04l1.792,5.04h2.233V187.032H22.647Z" transform="translate(-5.453 -54.769)" fill="#1a1818"/><path d="M33.672,186.665a3.131,3.131,0,0,0-2.3.862,3.084,3.084,0,0,0-.872,2.281v7.975a3.073,3.073,0,0,0,.88,2.272,3.47,3.47,0,0,0,4.59.008,3.078,3.078,0,0,0,.872-2.281V195.94H34.177v1.982a.477.477,0,0,1-.135.362.561.561,0,0,1-.739,0,.474.474,0,0,1-.135-.361V189.67a.478.478,0,0,1,.135-.363.567.567,0,0,1,.738,0,.481.481,0,0,1,.136.363v1.982h2.666v-1.844a3.073,3.073,0,0,0-.88-2.273,3.128,3.128,0,0,0-2.291-.871" transform="translate(-8.932 -54.662)" fill="#1a1818"/><path d="M44.312,186.665a3.133,3.133,0,0,0-2.3.862,3.084,3.084,0,0,0-.872,2.281v7.975a3.073,3.073,0,0,0,.88,2.272,3.47,3.47,0,0,0,4.59.008,3.078,3.078,0,0,0,.873-2.281v-7.975a3.071,3.071,0,0,0-.881-2.273,3.128,3.128,0,0,0-2.291-.871m.5,3v8.253a.48.48,0,0,1-.134.362.564.564,0,0,1-.739,0h0a.474.474,0,0,1-.135-.361V189.67a.478.478,0,0,1,.135-.363.49.49,0,0,1,.369-.134.5.5,0,0,1,.37.133.483.483,0,0,1,.135.363" transform="translate(-12.048 -54.662)" fill="#1a1818"/><path d="M56.468,191.881l-1.725-4.848H52.527v13.742h2.665v-5.042l.795,2.234h.96l.8-2.235v5.043h2.665V187.033H58.193Z" transform="translate(-15.382 -54.769)" fill="#1a1818"/><path d="M72.677,190.176a3.076,3.076,0,0,0-.88-2.274,3.128,3.128,0,0,0-2.291-.871h-3.17v13.742H69V195.92h.5a3.137,3.137,0,0,0,2.3-.861,3.084,3.084,0,0,0,.872-2.282Zm-2.667-.139v2.878a.476.476,0,0,1-.134.362.493.493,0,0,1-.371.135H69V189.54h.5a.5.5,0,0,1,.37.133.484.484,0,0,1,.134.364" transform="translate(-19.425 -54.769)" fill="#1a1818"/><path d="M76.683,187.033l-1.739,13.742h2.692L78,197.81h1.232l.372,2.964h2.515l-1.772-13.742Zm2.232,8.27H78.3l.3-2.482Z" transform="translate(-21.946 -54.77)" fill="#1a1818"/><path d="M92.771,192.775v-2.6a3.072,3.072,0,0,0-.88-2.272,3.128,3.128,0,0,0-2.29-.871H86.43v13.742H89.1v-4.36l1.346,4.36H93.23l-1.677-5.433a2.913,2.913,0,0,0,1.218-2.566m-2.666-2.737v2.878a.479.479,0,0,1-.134.362.5.5,0,0,1-.371.135h-.5V189.54h.5a.5.5,0,0,1,.371.133.486.486,0,0,1,.134.364" transform="translate(-25.31 -54.769)" fill="#1a1818"/><path d="M98.139,187.033,96.4,200.775h2.692l.361-2.964h1.232l.372,2.964h2.515L101.8,187.033Zm2.232,8.27h-.612l.3-2.482Z" transform="translate(-28.229 -54.77)" fill="#1a1818"/><path d="M111.057,187.033h-3.17v13.742h3.17a3.134,3.134,0,0,0,2.3-.862,3.078,3.078,0,0,0,.872-2.281v-1.647a3.134,3.134,0,0,0-.7-2.081,3.129,3.129,0,0,0,.7-2.08v-1.646a3.074,3.074,0,0,0-.88-2.274,3.128,3.128,0,0,0-2.29-.871m-.5,5.617v-3.109h.5a.5.5,0,0,1,.37.134.483.483,0,0,1,.134.364v2.114a.48.48,0,0,1-.134.363.5.5,0,0,1-.371.134Zm1.009,3v2.116a.478.478,0,0,1-.134.362.491.491,0,0,1-.371.134h-.5v-3.108h.5a.5.5,0,0,1,.371.134.478.478,0,0,1,.134.362" transform="translate(-31.593 -54.77)" fill="#1a1818"/><path d="M121.813,187.032h-2.666v13.742h5.641v-2.508h-2.975Z" transform="translate(-34.89 -54.769)" fill="#1a1818"/><path d="M128.3,200.774H134.3v-2.508h-3.326v-3.108h2.625V192.65h-2.625V189.54H134.3v-2.508H128.3Z" transform="translate(-37.571 -54.769)" fill="#1a1818"/><path d="M144.543,191.652v-1.843a3.071,3.071,0,0,0-.881-2.273,3.47,3.47,0,0,0-4.589-.009,3.086,3.086,0,0,0-.872,2.282v1.04a3.925,3.925,0,0,0,.406,1.765,4.61,4.61,0,0,0,1,1.35l1.084,1a5.907,5.907,0,0,1,.862.982,1.693,1.693,0,0,1,.325.975v1.006a.473.473,0,0,1-.134.362.56.56,0,0,1-.74,0,.473.473,0,0,1-.134-.361V195.94H138.2v1.844a3.073,3.073,0,0,0,.88,2.272,3.164,3.164,0,0,0,5.462-2.279v-1.042a3.979,3.979,0,0,0-.4-1.766,4.563,4.563,0,0,0-.991-1.354l-1.085-1a6.064,6.064,0,0,1-.868-.982,1.668,1.668,0,0,1-.331-.968v-1a.469.469,0,0,1,.134-.359.572.572,0,0,1,.74,0,.479.479,0,0,1,.134.363v1.982Z" transform="translate(-40.47 -54.662)" fill="#1a1818"/><path d="M128.7,51.3h-9.523a1.094,1.094,0,0,0,.153,1.169c.472.752.995,1.474,1.424,2.249a6.1,6.1,0,0,1-.471,6.864c-1.351,1.974-3.254,2.04-5.359,1.675a21.085,21.085,0,0,0-7.009-.028c-4.6.743-7.015,3.64-8.038,7.95a7.361,7.361,0,0,1-.612,2.455c-.38-.107-.35-.39-.385-.572-.215-1.072-.657-.863-1.165-.217a8.618,8.618,0,0,0-.951,1.356,14.4,14.4,0,0,0-.24,12.789c.194.4.879.24,1.541.185.677-.057.554-.639.652-.986A39.752,39.752,0,0,1,99.942,81.5a59.393,59.393,0,0,1,3.069-5.889,5.884,5.884,0,0,1,4.757-3.391,7.783,7.783,0,0,0,6.2-4.162.935.935,0,0,0,.413-.663c1.037-1.883,1.96-2.145,4.212-1.177-3.432,3.666-5.947,8.449-11.72,9.19a8.075,8.075,0,0,0,7.8,2.037c.841-.32,1.221-.932.882-1.728-.458-1.071.009-1.721.752-2.382a51.369,51.369,0,0,1,5.225-3.776c.335-.231.787-.341,1.025-.045.92,1.145,2.107,2.109,2.631,3.533.446,1.216.322,1.368-.982,1.478-1.786.151-2.109.52-1.96,2.287.04.477.148.949.173,1.426.069,1.291.6,2.64-.447,3.8-.327-.1-.443-.713-.882-.452a.966.966,0,0,0-.458,1.124c.044.188-.107.419.048.619a16.4,16.4,0,0,1-7.606,3.174c-.436.077-2.813,1.011-2.43,1.863,1.174,2.613,4.333,3.97,6.384,6.019a2.215,2.215,0,0,0,2.832.491,18.086,18.086,0,0,0,8.072-8.576,1.418,1.418,0,0,0,.006-1.574c-.45-.491-.3-.884-.142-1.4.905-2.989,1.979-5.918,1.439-9.178-.639-3.849-2.165-6.7-6.463-7.557-.25-.049-.614.067-.752-.26.012-.24.165-.245.308-.281,3.008-.745,3.665-3.179,3.127-5.553a23.9,23.9,0,0,1-1.082-5.293c0-.52-.049-1.1.556-1.317a1.343,1.343,0,0,1,1.529.372,16.181,16.181,0,0,0,1.315,1.354,1.528,1.528,0,0,0,1.842.368c.646-.418.511-1.119.289-1.8a22,22,0,0,0-1.2-2.891m-22.38,18.89a4.624,4.624,0,0,1-3.424-1.955c-.111-.227,0-.349.1-.489.367-.545.747-1.082,1.183-1.71.3.515.5.868.709,1.212a1.251,1.251,0,0,0,1.348.566,1.208,1.208,0,0,0,1.153-1.014c.081-.469.219-.931.257-1.4.04-.5.217-.672.751-.687,1.549-.045,1.548-.075,1.549,1.474,0,2.778-.944,3.822-3.624,4.006" transform="translate(-27.861 -15.022)" fill="#050605"/><path d="M111.5,50.976a3.1,3.1,0,0,1,.173,3.3c-1.209,2.6-2.739,5-4.128,7.49-.17.305-.533.616-.247,1,.349.475.758.091,1.078-.063a77.221,77.221,0,0,0,9.429-5.379c1.868-1.243,2.272-4.094,1.694-6.355Z" transform="translate(-31.389 -14.927)" fill="#050605"/><path d="M138.987,156.477a3.361,3.361,0,0,1,.182,3.542c-1.278,2.784-2.894,5.362-4.363,8.031-.18.327-.564.66-.262,1.077.37.508.8.1,1.141-.068a81.457,81.457,0,0,0,9.968-5.768c1.974-1.333,2.4-4.389,1.791-6.814Z" transform="translate(-39.366 -45.822)" fill="#050605"/><path d="M92.951,129.973a5.324,5.324,0,0,1-.438,3.516c-1.816,4.029-2.193,4.348-3.824,7.531-.157.308-.436.6-.321,1.04.14.537.46.17.686.039a50.927,50.927,0,0,0,6.794-4.776c1.375-1.134,2.1-4.115,2.113-6.567Z" transform="translate(-25.869 -38.06)" fill="#050605"/><path d="M44.09,72.334c-.391.04-.32.677-.5,1.03-.076.149-.129.246-.429.231l-.47-2.288c-.947-4.615-3.45-7.161-8.011-8.057a21.307,21.307,0,0,0-7.325.047c-1.565.235-3.09.332-4.377-.934A6.3,6.3,0,0,1,21.6,55.244a24.78,24.78,0,0,1,1.651-2.753c.263-.425.4-.815.142-1.192H13.912a21.482,21.482,0,0,0-1.25,3.088c-.192.617-.216,1.245.33,1.6a1.444,1.444,0,0,0,1.672-.219,11.84,11.84,0,0,0,1.309-1.352,1.49,1.49,0,0,1,1.693-.531c.694.269.561.938.56,1.53-.006,1.875-.787,3.585-1.14,5.386A4.168,4.168,0,0,0,20.041,66c.2.068.588-.066.542.425-.329.091-.67.214-1.022.279a6.828,6.828,0,0,0-5.617,5.056,13,13,0,0,0-.173,8.049c.409,1.219.753,2.46,1.117,3.694.1.343.313.715-.035,1.028-.635.573-.366,1.212-.153,1.834a11.723,11.723,0,0,0,2.472,3.911,16.342,16.342,0,0,0,5.836,4.695,2.008,2.008,0,0,0,2.343-.41c2.148-1.968,6.036-4.324,7.279-6.894.337-.7-2.288-1.056-3.153-1.187a15.609,15.609,0,0,1-8.028-3.493,3.451,3.451,0,0,1-1.372-3.616,14.57,14.57,0,0,0,.269-2.306c.156-2.126-.021-2.38-2.138-2.518-.979-.064-1.117-.452-.888-1.271.347-1.239,1.409-1.974,2.057-2.995.627-.987,1.343-1.168,2.264-.415a2.008,2.008,0,0,0,.941.641,42.646,42.646,0,0,1,3.78,2.914,1.9,1.9,0,0,1,.714,2.223c-.358,1,.071,1.612,1.109,1.9a5.515,5.515,0,0,0,1.433.185,8.411,8.411,0,0,0,6.255-2.356c-3.759-.313-6.145-2.518-8.339-4.985-1.2-1.344-2.3-2.769-3.44-4.153,1.86-1,2.765-.8,3.846.887.08.124.139.261.219.386,1.61,2.525,3.614,4.5,6.82,4.762a5.137,5.137,0,0,1,4.253,2.828c1.729,3.112,3.742,6.109,4.26,9.751a8.523,8.523,0,0,0,.41,1.6c.1.274.057.682.549.724a.86.86,0,0,0,.883-.525c.6-1.027,1.282-1.482,1.59-2.62a13.383,13.383,0,0,0-1.783-10.81c-.265-.393-.569-.93-1.047-.883m-6.426-2.347a3.627,3.627,0,0,1-5.035-3.166c0-.221,0-.443,0-.665,0-1.54,0-1.518,1.588-1.438.452.022.675.115.7.6a11.318,11.318,0,0,0,.2,1.2,1.431,1.431,0,0,0,2.718.492c.152-.287.329-.561.5-.844,1.72,1.67,1.519,2.818-.662,3.823" transform="translate(-3.672 -15.022)" fill="#050605"/><path d="M40.254,54.432a3.088,3.088,0,0,1,.149-3.445H32.359a5.714,5.714,0,0,0,2.187,6.671,54,54,0,0,0,8.77,5c.366.175.814.576,1.2.143s-.081-.83-.281-1.184c-1.349-2.382-2.8-4.7-3.979-7.186" transform="translate(-9.384 -14.931)" fill="#050605"/><path d="M45.979,51.055a.334.334,0,0,0,.048-.068h-.989c.308.1.662.348.941.068" transform="translate(-13.189 -14.931)" fill="#050605"/><path d="M11.635,159.871a3.351,3.351,0,0,1,.158-3.695h-8.5A6.174,6.174,0,0,0,5.6,163.329a56.8,56.8,0,0,0,9.271,5.364c.386.187.861.617,1.268.153s-.086-.89-.3-1.269c-1.426-2.554-2.955-5.042-4.206-7.705" transform="translate(-0.867 -45.734)" fill="#050605"/><path d="M17.687,156.249a.333.333,0,0,0,.051-.073H16.692c.325.112.7.373.995.073" transform="translate(-4.888 -45.734)" fill="#050605"/><path d="M74.924,0l2.75,5.571,6.147.894L79.373,10.8l1.05,6.124-5.5-2.892-5.5,2.892,1.05-6.124L66.027,6.465l6.147-.894Z" transform="translate(-19.335 0)" fill="#030404"/><path d="M12.239,27.429l1.9,3.852,4.251.618-3.075,3,.726,4.234-3.8-2-3.8,2L9.163,34.9l-3.075-3,4.251-.618Z" transform="translate(-1.783 -8.032)" fill="#030404"/><path d="M37.948,27.429l1.9,3.852L44.1,31.9l-3.075,3,.726,4.234-3.8-2-3.8,2,.726-4.234-3.075-3,4.251-.618Z" transform="translate(-9.311 -8.032)" fill="#030404"/><path d="M115.072,27.429l1.9,3.852,4.251.618-3.075,3,.726,4.234-3.8-2-3.8,2L112,34.9l-3.075-3,4.251-.618Z" transform="translate(-31.896 -8.032)" fill="#030404"/><path d="M63.656,27.429l1.9,3.852,4.251.618-3.076,3,.726,4.234-3.8-2-3.8,2L60.58,34.9l-3.076-3,4.251-.618Z" transform="translate(-16.839 -8.032)" fill="#030404"/><path d="M89.364,27.429l1.9,3.852,4.251.618-3.076,3,.726,4.234-3.8-2-3.8,2,.726-4.234-3.076-3,4.251-.618Z" transform="translate(-24.367 -8.032)" fill="#030404"/><path d="M140.781,27.429l1.9,3.852,4.251.618-3.075,3,.726,4.234-3.8-2-3.8,2L137.7,34.9l-3.075-3,4.251-.618Z" transform="translate(-39.424 -8.032)" fill="#030404"/><rect width="95.335" height="2.419" transform="translate(8.678 127.615)" fill="#030404"/><path d="M69.855,56.2c-.4-.658-1.009-.185-1.568-.012,0-.012-.006-.025-.008-.037l-1.267.9c.018.146.037.292.057.438-.737,1.165-1.51,2.214-2.2,3.52a22.062,22.062,0,0,0-2.939,8.062c-.167,1.344-.112,1.792.626.8,2.359-3.182,4.621-6.932,6.914-10.5a3.008,3.008,0,0,0,.388-3.17" transform="translate(-18.112 -16.36)" fill="#050605"/><path d="M84.226,56.2c.4-.658,1.009-.185,1.568-.012,0-.012.006-.025.008-.037l1.268.9c-.019.146-.038.292-.058.438.737,1.165,1.51,2.214,2.2,3.52a22.075,22.075,0,0,1,2.938,8.062c.167,1.344.112,1.792-.625.8-2.36-3.182-4.622-6.932-6.914-10.5a3.008,3.008,0,0,1-.388-3.17" transform="translate(-24.577 -16.36)" fill="#050605"/></g></svg>